<?xml version="1.0" encoding="UTF-8" standalone="no"?>
<svg
   xmlns:dc="http://purl.org/dc/elements/1.1/"
   xmlns:cc="http://creativecommons.org/ns#"
   xmlns:rdf="http://www.w3.org/1999/02/22-rdf-syntax-ns#"
   xmlns:svg="http://www.w3.org/2000/svg"
   xmlns="http://www.w3.org/2000/svg"
   xmlns:sodipodi="http://sodipodi.sourceforge.net/DTD/sodipodi-0.dtd"
   xmlns:inkscape="http://www.inkscape.org/namespaces/inkscape"
   width="24"
   height="18"
   viewBox="0 0 24 18"
   fill="none"
   version="1.1"
   id="svg6"
   sodipodi:docname="menu.svg"
   inkscape:version="0.92.3 (2405546, 2018-03-11)">
  <metadata
     id="metadata12">
    <rdf:RDF>
      <cc:Work
         rdf:about="">
        <dc:format>image/svg+xml</dc:format>
        <dc:type
           rdf:resource="http://purl.org/dc/dcmitype/StillImage" />
      </cc:Work>
    </rdf:RDF>
  </metadata>
  <defs
     id="defs10" />
  <sodipodi:namedview
     pagecolor="#ffffff"
     bordercolor="#666666"
     borderopacity="1"
     objecttolerance="10"
     gridtolerance="10"
     guidetolerance="10"
     inkscape:pageopacity="0"
     inkscape:pageshadow="2"
     inkscape:window-width="1920"
     inkscape:window-height="1041"
     id="namedview8"
     showgrid="false"
     inkscape:zoom="13.111111"
     inkscape:cx="12.228814"
     inkscape:cy="9"
     inkscape:window-x="0"
     inkscape:window-y="0"
     inkscape:window-maximized="1"
     inkscape:current-layer="svg6" />
  <path
     d="M3 12H15"
     stroke="#0D1333"
     stroke-width="2"
     stroke-linecap="round"
     stroke-linejoin="round"
     id="path2" />
  <path
     d="M3 6H21"
     id="path4"
     style="fill:#000000"
     stroke-linejoin="round"
     stroke-linecap="round"
     stroke-width="2"
     stroke="#0D1333" />
  <path
     style="fill:#000000;stroke-width:0.07627118"
     d="M 2.5270079,6.8217318 C 1.904011,6.4418684 1.8932537,5.551863 2.5072754,5.1891515 2.6996501,5.075513 3.5448001,5.0644068 12,5.0644068 c 8.4552,0 9.30035,0.011106 9.492725,0.1247447 0.450698,0.2662341 0.589234,0.8456623 0.31121,1.3016371 C 21.491103,7.0038508 22.158543,6.9712162 11.98472,6.9709013 2.9811477,6.9706227 2.765622,6.9672234 2.5270079,6.8217318 Z"
     id="path4783"
     inkscape:connector-curvature="0" />
  <path
     style="fill:#000000;stroke-width:0.07627118"
     d="M 2.7743655,12.940975 C 1.9046604,12.720057 1.7967226,11.466471 2.6178644,11.123376 c 0.3831393,-0.160085 12.3452426,-0.164458 12.7277116,-0.0047 0.831984,0.347625 0.771421,1.559738 -0.08988,1.798958 -0.284066,0.0789 -12.175062,0.101088 -12.4813255,0.02329 z"
     id="path4785"
     inkscape:connector-curvature="0" />
</svg>
